HIERARCHY
ROOT pelvis
{
  OFFSET 0 100 0
  CHANNELS 6 Xposition Yposition Zposition Zrotation Xrotation Yrotation
  JOINT pelvis_right_femur
  {
    OFFSET -10.78128 -3.44521 -0.5502486
    CHANNELS 3 Zrotation Xrotation Yrotation
    JOINT right_femur_tibia
    {
      OFFSET -0.8047443 -44.0398 -0.1307829
      CHANNELS 3 Zrotation Xrotation Yrotation
      JOINT right_tibia_foot
      {
        OFFSET 3.006224 -47.83518 -5
        CHANNELS 3 Zrotation Xrotation Yrotation
        End Site
        {
          OFFSET 0 -5 15
        }
      }
    }
  }
  JOINT pelvis_left_femur
  {
    OFFSET 10.78128 -3.44521 -0.5502486
    CHANNELS 3 Zrotation Xrotation Yrotation
    JOINT left_femur_tibia
    {
      OFFSET 0.8047443 -44.0398 -0.1307829
      CHANNELS 3 Zrotation Xrotation Yrotation
      JOINT left_tibia_foot
      {
        OFFSET -4.370144 -48.10324 -4.275266
        CHANNELS 3 Zrotation Xrotation Yrotation
        End Site
        {
          OFFSET 0 -5 15
        }
      }
    }
  }
  JOINT pelvis_spine1
  {
    OFFSET 0 6.468898 -3.129235
    CHANNELS 3 Zrotation Xrotation Yrotation
    JOINT spine1
    {
      OFFSET 0 23.15396 4.99043
      CHANNELS 3 Zrotation Xrotation Yrotation
      JOINT spine2
      {
        OFFSET 0 20.79997 -5.064912
        CHANNELS 3 Zrotation Xrotation Yrotation
        JOINT neck
        {
          OFFSET 0 14.38658 9.616178
          CHANNELS 3 Zrotation Xrotation Yrotation
          End Site
          {
            OFFSET 0 20 0
          }
        }
      }
      JOINT right_manubrium
      {
        OFFSET -5.722621 16.35077 3.967754
        CHANNELS 3 Zrotation Xrotation Yrotation
        JOINT right_clavicle
        {
          OFFSET -13.16364 1.694482 -4.693211
          CHANNELS 3 Zrotation Xrotation Yrotation
          JOINT right_humerus
          {
            OFFSET -28.5034 -0.3100689 -2.792744
            CHANNELS 3 Zrotation Xrotation Yrotation
            JOINT right_radius
            {
              OFFSET -25.15693 0.02248979 -1.271978
              CHANNELS 3 Zrotation Xrotation Yrotation
              End Site
              {
                OFFSET -15 0 0
              }
            }
          }
        }
      }
      JOINT left_manubrium
      {
        OFFSET 5.722621 16.35077 3.967754
        CHANNELS 3 Zrotation Xrotation Yrotation
        JOINT left_clavicle
        {
          OFFSET 13.16364 1.694482 -4.693211
          CHANNELS 3 Zrotation Xrotation Yrotation
          JOINT left_humerus
          {
            OFFSET 29.39168 -1.063119 -2.237045
            CHANNELS 3 Zrotation Xrotation Yrotation
            JOINT left_radius
            {
              OFFSET 24.59957 -0.9528479 0.9047498
              CHANNELS 3 Zrotation Xrotation Yrotation
              End Site
              {
                OFFSET 15 -0 -0
              }
            }
          }
        }
      }
    }
  }
}
MOTION
Frames: 15
Frame Time: 0.0416666666667
0 103.5113 0 2.866365 -2.024569 0.2925768 0.6629952 -9.975897 7.619513 -0 35.97097 -0 -4.603276 -19.01304 -3.45635 -8.248416 11.44793 -23.68888 -0 4.37832 -0 8.368083 -15.71408 25.68385 -2.417016 -4.026973 5.386219 2.916525 10.28503 -7.772089 2.343994 21.48894 4.884267 1.928396 -26.15545 9.813086 5.928026 -20.09079 10.43605 86.40524 34.50154 -21.00896 -0 0 16.29576 -4.652944 7.976523 1.681889 6.365888 -20.4978 -1.535574 -96.06942 26.07921 24.51543 0 0 -14.35321 11.29559 18.03992 2.587692
0.2321051 103.4415 1.346311 1.939454 -1.356371 0.4189419 2.036413 -12.54294 8.786276 -0 37.61687 -0 -4.856409 -18.0629 -3.97381 -7.58718 11.41327 -23.72633 -0 4.245447 -0 7.666675 -16.75046 26.14483 -2.378956 -3.986403 5.341568 2.881164 10.31376 -7.725808 2.336336 21.51761 4.900509 1.954147 -26.05546 9.783061 5.949648 -19.99539 10.4312 86.43394 34.4681 -21.01476 -0 0 16.12598 -4.87399 8.066866 1.813473 6.346024 -20.4933 -1.604506 -96.01126 26.0847 24.44036 0 0 -14.28767 11.16133 17.98806 2.702024
0.5078968 102.9616 3.406376 0.6531227 -0.6132598 0.4391319 3.747042 -20.46962 6.698516 -0 31.8198 -0 -6.804498 -13.32372 -3.090778 -6.652462 11.87256 -21.28232 -0 4.258888 -0 6.726335 -19.0262 24.51334 -2.00836 -3.45897 5.246167 2.608706 10.43746 -7.420406 2.17472 21.47514 5.324297 2.236734 -25.95525 9.786718 5.979392 -19.6654 10.64477 86.57212 35.27995 -20.41115 -0 0 14.98329 -6.089571 8.499933 2.962605 6.137401 -20.43633 -1.877918 -94.96343 25.14549 23.61332 0 0 -14.66213 11.93828 16.64984 1.869373
0.7882534 102.3549 5.716295 0.0722047 0.4230287 0.4656283 4.835383 -24.41412 6.985811 -0 29.50893 -0 -6.719128 -11.33384 -2.944213 -6.347564 11.77251 -20.51339 -0 4.465609 -0 6.515262 -20.21428 24.14199 -1.888069 -3.250661 5.28835 2.651295 10.435 -7.464948 2.0892 21.34364 5.463662 2.304168 -26.22962 9.810825 5.912312 -19.65535 10.73576 86.73516 35.65752 -20.44832 -0 0 14.65356 -5.925012 8.407872 3.060459 6.063135 -20.51047 -1.940777 -94.6099 24.9403 23.39317 0 0 -15.45599 12.31654 16.01925 1.564289
1.084793 101.6533 8.262277 -0.2969441 1.425475 0.5242254 5.765229 -27.7815 7.209478 -0 26.84757 -0 -6.380106 -9.630414 -2.586304 -6.275964 11.7209 -19.93178 -0 4.890537 -0 7.16047 -20.98087 24.0514 -1.738786 -2.976953 5.213213 2.542505 10.46768 -7.338992 2.011774 21.30445 5.703895 2.450585 -26.20152 9.846617 5.897098 -19.50452 10.86652 86.81332 36.13977 -20.1162 -0 0 14.08151 -6.443817 8.603621 3.624847 5.966793 -20.45216 -2.050007 -93.94805 24.3394 22.80437 0 0 -15.82434 12.86289 15.2849 0.9540728
1.399013 100.9118 11.05164 -0.6360536 2.281893 0.6449929 6.622249 -30.59169 7.393067 -0 24.41749 -0 -6.047687 -8.138507 -2.205273 -6.22216 11.83653 -19.49929 -0 5.576218 -0 7.716347 -21.57765 23.92186 -1.689704 -2.833297 5.223733 2.605914 10.44255 -7.399768 1.94394 21.18813 5.843724 2.503895 -26.447 9.906717 5.830164 -19.52336 10.95598 86.94888 36.48196 -20.14953 -0 0 13.84246 -6.245126 8.515298 3.687244 5.916301 -20.49273 -2.078515 -93.59259 24.11555 22.53843 0 0 -16.5748 13.25304 14.74965 0.599748
1.732638 100.1888 14.12839 -1.003417 3.049987 0.8655304 7.474424 -32.99212 7.543264 -0 22.22467 -0 -5.798513 -6.791904 -1.809628 -6.142822 12.14298 -19.13267 -0 6.559317 -0 8.117876 -21.96399 23.66469 -1.64872 -2.669321 5.172635 2.610539 10.42438 -7.386732 1.886564 21.12093 6.024216 2.587361 -26.54849 9.979719 5.783401 -19.48287 11.05942 87.03857 36.85851 -20.02067 -0 0 13.51478 -6.323218 8.545284 3.939728 5.858013 -20.46103 -2.124944 -93.10277 23.73074 22.09283 0 0 -17.15092 13.70558 14.19705 0.112317
2.084232 99.51976 17.58449 -1.41003 3.746216 1.225072 8.260209 -34.96686 7.548752 -0 20.06883 -0 -5.726912 -5.533367 -1.443153 -5.99034 12.70861 -18.67634 -0 7.907411 -0 8.029475 -22.11278 22.97319 -1.669678 -2.580133 5.17484 2.716137 10.37083 -7.479627 1.824512 21.00149 6.168511 2.623728 -26.82687 10.07811 5.708899 -19.54946 11.14664 87.16052 37.1777 -20.09702 -0 0 13.37263 -6.00693 8.413139 3.928527 5.820809 -20.48967 -2.124911 -92.78033 23.56059 21.84751 0 0 -17.96943 14.07318 13.71342 -0.2272293
2.448128 98.93844 21.53758 -1.868207 4.403094 1.757042 8.944049 -36.33407 7.402297 -0 18.00716 -0 -5.875603 -4.373785 -1.164836 -5.72155 13.52532 -18.04172 -0 9.817438 -0 7.075503 -21.91225 21.575 -1.708087 -2.487707 5.149612 2.809072 10.31327 -7.548767 1.76512 20.90016 6.332621 2.670902 -27.05356 10.18682 5.640257 -19.59536 11.23783 87.26391 37.50099 -20.12559 -0 0 13.20346 -5.782013 8.319679 3.983112 5.781466 -20.48997 -2.130003 -92.4103 23.35109 21.53436 0 0 -18.75113 14.43623 13.22383 -0.5913269
2.813781 98.48773 26.11307 -2.388359 5.00579 2.465595 9.49599 -36.7405 7.130569 -0 16.24348 -0 -6.271818 -3.347534 -1.038858 -5.286338 14.47757 -17.13863 -0 12.71244 -0 4.851994 -21.09986 19.21427 -1.784424 -2.439837 5.16184 2.962476 10.23351 -7.67962 1.696538 20.76244 6.484114 2.69436 -27.39359 10.31172 5.55655 -19.7074 11.31944 87.38368 37.78806 -20.27851 -0 0 13.14524 -5.337521 8.129999 3.892689 5.752803 -20.5321 -2.107314 -92.15273 23.28405 21.36724 0 0 -19.67414 14.72078 12.75655 -0.8332967
3.171425 98.24095 31.37961 -2.974712 5.43695 3.277472 9.923454 -35.67211 6.845396 -0 15.24159 -0 -6.890577 -2.60092 -1.10239 -4.644683 15.16518 -15.94434 -0 17.29979 -0 1.163683 -19.24548 15.89829 -1.869652 -2.396036 5.167841 3.116024 10.1513 -7.805629 1.626764 20.62853 6.640046 2.721122 -27.71796 10.43645 5.4757 -19.8108 11.39659 87.49805 38.0537 -20.43624 -0 0 13.08345 -4.921502 7.950581 3.815849 5.725546 -20.5731 -2.087071 -91.90445 23.23689 21.20543 0 0 -20.58098 14.95543 12.29539 -1.029666
3.524205 98.30788 37.25267 -3.556837 5.438511 3.986686 10.20052 -32.68406 6.632281 -0 15.38362 -0 -7.643037 -2.450312 -1.275901 -3.83553 14.77227 -14.53084 -0 24.37648 -0 -3.468293 -15.96851 12.19829 -1.964658 -2.379275 5.201266 3.295484 10.06312 -7.961936 1.551299 20.47537 6.780971 2.735858 -28.09698 10.55854 5.390471 -19.94437 11.46115 87.62151 38.27642 -20.67025 -0 0 13.08115 -4.406326 7.723252 3.659834 5.704974 -20.64653 -2.057313 -91.74948 23.28916 21.16073 0 0 -21.51721 15.10784 11.85956 -1.111747
3.893661 98.7934 43.44688 -3.892427 4.732761 4.293137 10.1336 -27.87616 6.341057 -0 16.25531 -0 -8.397626 -3.230286 -1.314482 -3.076887 12.35206 -13.0465 -0 34.0293 -0 -7.550862 -11.61253 9.190518 -2.04656 -2.369237 5.236473 3.464133 9.984843 -8.111971 1.478365 20.32942 6.905745 2.749989 -28.4499 10.66203 5.311991 -20.06182 11.51298 87.7466 38.45552 -20.92022 -0 0 13.07158 -3.929951 7.510373 3.504292 5.687766 -20.7305 -2.038475 -91.63307 23.37224 21.15139 0 0 -22.37954 15.1971 11.45887 -1.125938
4.293439 99.71068 49.62589 -3.653554 3.295954 4.036294 9.472396 -22.09552 5.705908 -0 16.53811 -0 -8.949203 -4.783985 -1.070154 -2.681435 7.850996 -11.60306 -0 44.73823 -0 -9.565665 -7.543528 7.689647 -2.110085 -2.375803 5.286952 3.627739 9.919079 -8.268719 1.407676 20.1841 7.001595 2.756455 -28.79859 10.74124 5.238304 -20.17675 11.54815 87.88113 38.58036 -21.21278 -0 0 13.0778 -3.448726 7.290952 3.312202 5.676473 -20.83948 -2.029005 -91.58853 23.51165 21.22008 0 0 -23.17135 15.21747 11.10823 -1.052881
4.695355 100.9373 55.63411 -2.768851 1.378072 3.370307 8.290101 -16.26839 4.902551 -0 15.47614 -0 -8.915946 -6.40343 -0.8359238 -2.702628 2.500702 -10.2111 -0 53.98517 -0 -9.38557 -4.978003 7.81076 -2.143681 -2.38816 5.337509 3.770381 9.873909 -8.417465 1.342965 20.05143 7.06802 2.760291 -29.10393 10.78756 5.173925 -20.26495 11.56814 88.02637 38.65164 -21.52459 -0 0 13.0629 -3.026557 7.095721 3.120586 5.670813 -20.96481 -2.03911 -91.57869 23.66916 21.31379 0 0 -23.85887 15.18471 10.81035 -0.924103
